<svg xmlns="http://www.w3.org/2000/svg" width="760" height="820" viewBox="0 0 760 820">
<rect width="760" height="820" fill="#f7f7f5"/>
<text x="60" y="32" font-size="18" font-weight="bold" fill="#222">The Cove - Deerfield Beach (interpretive planning boundary)</text>
<text x="60" y="50" font-size="11" fill="#666">59 vertices | 813.7 acres / 1.27 sq mi | N=Hillsboro Blvd, W=US-1, E=Intracoastal, S=Lighthouse Pt transition</text>
<polygon points="60.7,60.0 622.2,60.0 664.4,62.3 676.8,63.9 679.9,74.6 685.6,97.7 690.5,120.8 694.4,143.9 695.8,155.5 698.6,190.1 700.0,224.8 700.0,236.3 698.9,271.0 696.8,305.7 673.6,559.8 669.4,594.4 663.7,629.1 660.9,640.6 657.4,652.2 653.2,663.7 648.3,675.3 642.3,686.8 635.6,698.4 627.8,709.2 608.8,730.0 597.6,739.2 585.2,747.7 571.2,754.2 555.3,756.9 523.6,758.8 476.1,760.0 365.2,760.0 317.7,758.5 301.8,757.3 286.0,755.4 270.2,752.3 255.4,747.7 241.3,741.5 227.9,733.8 215.2,725.3 203.3,715.7 192.0,705.3 181.5,694.5 162.1,671.4 152.9,659.9 135.7,634.9 119.8,607.9 112.5,593.7 106.1,579.0 100.5,563.6 95.6,548.2 91.3,532.8 84.6,480.8 74.1,376.9 65.6,272.9 62.5,220.9 61.1,186.3 60.0,134.3 60.7,60.0" fill="#ff0000" fill-opacity="0.18" stroke="#d00000" stroke-width="2.5"/><rect x="382.1" y="186.1" width="12" height="12" fill="#0a58ca" stroke="#fff" stroke-width="1.5"/><text x="398.1" y="196.1" font-size="12" fill="#0a58ca">Cove Shopping Center</text><circle cx="60.7" cy="60.0" r="4" fill="#ff8c00" stroke="#fff"/><text x="67.7" y="63.0" font-size="10" fill="#7a4500">Hillsboro Blvd / US-1 edge (NW)</text><circle cx="676.8" cy="63.9" r="4" fill="#ff8c00" stroke="#fff"/><text x="683.8" y="66.9" font-size="10" fill="#7a4500">Hillsboro Blvd / Intracoastal edge (NE)</text><circle cx="691.6" cy="363.4" r="4" fill="#ff8c00" stroke="#fff"/><text x="698.6" y="366.4" font-size="10" fill="#7a4500">Intracoastal / waterfront edge (E mid)</text><circle cx="571.2" cy="754.2" r="4" fill="#ff8c00" stroke="#fff"/><text x="578.2" y="757.2" font-size="10" fill="#7a4500">South waterfront transition (SE)</text><circle cx="91.3" cy="532.8" r="4" fill="#ff8c00" stroke="#fff"/><text x="98.3" y="535.8" font-size="10" fill="#7a4500">South / US-1 transition (SW)</text><circle cx="71.3" cy="342.2" r="4" fill="#ff8c00" stroke="#fff"/><text x="78.3" y="345.2" font-size="10" fill="#7a4500">US-1 / Federal Hwy edge (W mid)</text>
<text x="60" y="800" font-size="10" fill="#999">Schematic shape check only (no basemap - network blocked). North is up. Not to be used as a survey.</text>
</svg>